<svg width="172" height="23" viewBox="0 0 172 23" fill="none" xmlns="http://www.w3.org/2000/svg">
<path d="M2.20977 13.025C4.88477 12.175 6.95977 10.4 7.93477 8.05C8.95977 10.275 11.0098 11.975 13.6598 12.775L14.6098 11.2C11.3348 10.225 8.98477 7.85 8.93477 5H14.1098V3.35H8.93477V0.574999H6.88477V3.35H1.78477V5H6.88477C6.83477 7.95 4.55977 10.425 1.25977 11.425L2.20977 13.025ZM8.93477 12.275H6.88477V16.45C4.60977 16.525 2.43477 16.525 0.584766 16.525L0.859766 18.25C4.85977 18.225 10.3598 18.2 15.3848 17.275L15.2098 15.75C13.2098 16.075 11.0348 16.225 8.93477 16.35V12.275ZM16.6848 0.425V22.875H18.7348V0.425H16.6848ZM41.8578 0.425H39.8078V16.875H41.8578V0.425ZM36.9578 11.6C33.6328 10.375 31.3578 7.325 31.3578 3.95V1.675H29.3078V3.95C29.3078 7.45 27.0578 10.7 23.6828 12L24.7578 13.675C27.3828 12.575 29.4078 10.4 30.3578 7.675C31.3578 10.225 33.3328 12.25 35.8828 13.225L36.9578 11.6ZM29.4828 20.675V15.35H27.4328V22.35H42.5328V20.675H29.4828ZM71.2279 0.449999H69.1779V16.825H71.2279V0.449999ZM55.3529 7.5C55.3529 5.325 57.0029 3.775 59.1779 3.775C61.4029 3.775 63.0529 5.325 63.0529 7.5C63.0529 9.725 61.4029 11.275 59.1779 11.275C57.0029 11.275 55.3529 9.725 55.3529 7.5ZM65.0529 7.5C65.0529 4.275 62.5279 2 59.1779 2C55.8529 2 53.3529 4.275 53.3529 7.5C53.3529 10.75 55.8529 13.05 59.1779 13.05C62.5279 13.05 65.0529 10.75 65.0529 7.5ZM58.8529 20.675V15.15H56.8029V22.35H71.9029V20.675H58.8529ZM77.151 2.85V4.5H85.576C85.151 9.825 82.151 14.125 76.126 17L77.226 18.675C84.676 15.025 87.651 9.325 87.651 2.85H77.151ZM92.176 0.425V22.85H94.226V0.425H92.176ZM117.621 9.6H113.746C114.496 7.6 114.821 5.475 114.821 3.275H106.171V4.95H112.796C112.421 9.65 110.021 13.675 105.221 16.55L106.421 18.025C109.521 16.175 111.671 13.85 113.021 11.25H117.621V21.725H119.571V1.025H117.621V9.6ZM122.296 0.425V22.85H124.246V0.425H122.296ZM136.144 2.375H134.119V6.4C134.119 10.65 131.394 14.95 128.094 16.525L129.344 18.2C131.969 16.85 134.119 14.05 135.144 10.675C136.219 13.875 138.369 16.525 140.919 17.775L142.144 16.125C138.819 14.625 136.144 10.5 136.144 6.4V2.375ZM144.494 0.425V22.9H146.544V0.425H144.494ZM155.692 18.325H168.992V12.675H153.592V14.3H166.942V16.775H153.667V22.575H169.542V20.95H155.692V18.325ZM168.417 8.775C168.917 6.25 168.917 4.325 168.917 2.8V1.375H153.792V3.025H166.892C166.892 4.5 166.867 6.3 166.367 8.775H151.192V10.425H171.542V8.775H168.417Z" fill="black"/>
</svg>
