<svg width="198" height="28" viewBox="0 0 198 28" fill="none" xmlns="http://www.w3.org/2000/svg">
<path d="M10.0279 5.11H16.3579V3.07H1.32789V5.11H7.56789V8.53C7.56789 13.18 4.29789 18.25 0.427891 20.08L1.86789 22.06C4.92789 20.5 7.56789 17.11 8.79789 13.18C10.0879 16.87 12.7279 19.96 15.8479 21.4L17.2279 19.42C13.2679 17.74 10.0279 13.09 10.0279 8.53V5.11ZM19.9879 0.339999V27.22H22.4479V0.339999H19.9879ZM50.8855 9.16C46.0855 8.5 41.4355 5.5 41.4355 1.93V0.73H38.9155V1.93C38.9155 5.5 34.2655 8.5 29.4955 9.16L30.4255 11.14C34.5355 10.45 38.4955 8.32 40.1755 5.23C41.8855 8.32 45.8455 10.45 49.9555 11.14L50.8855 9.16ZM30.7255 20.44H46.8955V27.25H49.3555V18.43H30.7255V20.44ZM41.4055 13.81V9.7H38.9455V13.81H28.0255V15.82H52.4455V13.81H41.4055ZM57.0632 3.19V5.23H66.9332C66.3632 11.59 62.6732 16.75 55.8032 20.2L57.1532 22.12C65.8532 17.77 69.3632 10.84 69.3632 3.19H57.0632ZM80.6432 11.23H76.3232V0.31H73.8632V27.22H76.3232V13.27H80.6432V11.23ZM104.791 7.81H88.9809V0.879999H86.5209V9.79H104.791V7.81ZM95.3709 25.21C91.1409 25.21 88.6509 24.1 88.6509 22.24C88.6509 20.32 91.1409 19.24 95.3709 19.24C99.6009 19.24 102.091 20.32 102.091 22.24C102.091 24.1 99.5709 25.21 95.3709 25.21ZM95.3709 17.32C89.6409 17.32 86.1609 19.09 86.1609 22.24C86.1609 25.36 89.6409 27.13 95.3709 27.13C101.101 27.13 104.581 25.36 104.581 22.24C104.581 19.09 101.101 17.32 95.3709 17.32ZM83.2509 12.91V14.92H107.581V12.91H83.2509ZM126.779 3.61H120.059V0.31H117.599V3.61H110.909V5.59H126.779V3.61ZM114.749 12.07C114.749 10.21 116.399 9.01 118.829 9.01C121.259 9.01 122.939 10.21 122.939 12.07C122.939 13.96 121.259 15.16 118.829 15.16C116.399 15.16 114.749 13.96 114.749 12.07ZM125.279 12.07C125.279 9.07 122.639 7.09 118.829 7.09C115.019 7.09 112.409 9.07 112.409 12.07C112.409 15.1 115.019 17.08 118.829 17.08C122.639 17.08 125.279 15.1 125.279 12.07ZM117.419 18.91H114.959V26.62H132.899V24.61H117.419V18.91ZM131.699 9.19V0.31H129.239V20.5H131.699V11.26H135.659V9.19H131.699ZM148.997 3.19V5.23H158.867C158.297 11.59 154.607 16.75 147.737 20.2L149.087 22.12C157.787 17.77 161.297 10.84 161.297 3.19H148.997ZM172.577 11.23H168.257V0.31H165.797V27.22H168.257V13.27H172.577V11.23ZM185.054 6.94H191.204V4.96H185.084V0.789999H182.594V4.96H176.384V6.94H182.624V9.01C182.624 13.72 179.654 18.25 175.664 20.14L177.044 22C180.134 20.5 182.684 17.44 183.884 13.69C185.114 17.23 187.664 20.14 190.754 21.55L192.104 19.63C188.114 17.89 185.054 13.51 185.054 9.01V6.94ZM194.714 0.279998V27.19H197.204V0.279998H194.714Z" fill="black"/>
</svg>
