<?xml version="1.0" standalone="no"?>
<!DOCTYPE svg PUBLIC "-//W3C//DTD SVG 20010904//EN"
 "http://www.w3.org/TR/2001/REC-SVG-20010904/DTD/svg10.dtd">
<svg version="1.0" xmlns="http://www.w3.org/2000/svg"
 width="129.000000pt" height="129.000000pt" viewBox="0 0 129.000000 129.000000"
 preserveAspectRatio="xMidYMid meet">

<g transform="translate(0.000000,129.000000) scale(0.100000,-0.100000)"
fill="#000000" stroke="none">
<path d="M558 1049 c-21 -10 -44 -29 -52 -42 -34 -52 -32 -120 3 -130 26 -6
61 19 61 44 0 57 86 77 122 29 27 -37 9 -82 -45 -112 -40 -22 -42 -26 -45 -73
l-4 -50 -256 -151 c-227 -133 -259 -155 -276 -188 -16 -32 -17 -44 -7 -76 6
-22 23 -48 38 -59 25 -21 36 -21 548 -21 512 0 523 0 548 21 39 30 53 85 34
131 -14 33 -43 53 -274 190 -145 87 -259 161 -261 170 -2 9 17 35 42 58 74 68
85 154 29 220 -52 62 -133 78 -205 39z m367 -577 c121 -72 220 -137 220 -144
0 -11 -92 -13 -500 -13 -400 0 -500 3 -500 13 0 7 113 80 250 161 l250 149 30
-18 c17 -10 129 -77 250 -148z"/>
</g>
</svg>
