<svg width="96" height="96" xmlns="http://www.w3.org/2000/svg" xmlns:xlink="http://www.w3.org/1999/xlink" overflow="hidden"><defs><clipPath id="clip0"><rect x="861" y="1" width="96" height="96"/></clipPath></defs><g clip-path="url(#clip0)" transform="translate(-861 -1)"><path d="M87.8 64.6 51 42.8 51 37.5C51 36.3 50.3 35.2 49.2 34.7 44 32.6 43 30.4 43 27.5 43 25.2 45.7 22.5 48 22.5 50.9 22.5 54 24.1 54 27.5 54 29.2 55.3 30.5 57 30.5 58.7 30.5 60 29.2 60 27.5 60 21.2 54.8 16.5 48 16.5 42.3 16.5 37 21.8 37 27.5 37 34.1 41 37.4 45 39.4L45 42.8 8.2 64.6C5.1 66.5 3.6 70.1 4.6 73.6 5.6 77.1 8.7 79.5 12.3 79.5L83.8 79.5C87.5 79.5 90.6 77.1 91.5 73.6 92.4 70.1 91 66.5 87.8 64.6ZM85.7 72C85.6 72.4 85.1 73.5 83.8 73.5L12.2 73.5C10.8 73.5 10.4 72.5 10.3 72 10.2 71.6 10 70.5 11.2 69.8L48 48 84.8 69.8C86 70.5 85.8 71.6 85.7 72Z" fill="#FFFFFF" transform="matrix(-1 0 0 1 957 1)"/></g></svg>